<svg width="20" height="20" viewBox="0 0 20 20" fill="none" xmlns="http://www.w3.org/2000/svg">
<path d="M8.33 3.33008H4.17C3.72709 3.33008 3.30232 3.50602 2.98913 3.81921C2.67595 4.1324 2.5 4.55717 2.5 5.00008V16.6701C2.5 17.5901 3.25 18.3301 4.17 18.3301H15.83C16.75 18.3301 17.5 17.5901 17.5 16.6701V5.00008C17.5 4.08008 16.75 3.33008 15.83 3.33008H11.67" stroke="white" stroke-width="1.67" stroke-linecap="round" stroke-linejoin="round"/>
<path d="M6.67008 1.66992H13.3301C13.7901 1.66992 14.1701 2.03992 14.1701 2.49992V4.16992C14.1701 4.62992 13.7901 4.99992 13.3301 4.99992H6.67008C6.21008 4.99992 5.83008 4.62992 5.83008 4.16992V2.49992C5.83008 2.03992 6.21008 1.66992 6.67008 1.66992Z" stroke="white" stroke-width="1.67" stroke-linecap="round" stroke-linejoin="round"/>
<path d="M6.66992 10H13.3299M6.66992 13.33H10.8299" stroke="white" stroke-width="1.67" stroke-linecap="round" stroke-linejoin="round"/>
</svg>
