<svg width="20" height="20" viewBox="0 0 20 20" fill="none" xmlns="http://www.w3.org/2000/svg">
<path d="M5.00008 7.50016H3.75008C3.19755 7.50016 2.66764 7.28067 2.27694 6.88997C1.88624 6.49927 1.66675 5.96936 1.66675 5.41683C1.66675 4.8643 1.88624 4.33439 2.27694 3.94369C2.66764 3.55299 3.19755 3.3335 3.75008 3.3335H5.00008" stroke="white" stroke-width="1.66667" stroke-linecap="round" stroke-linejoin="round"/>
<path d="M15 7.50016H16.25C16.8025 7.50016 17.3324 7.28067 17.7231 6.88997C18.1138 6.49927 18.3333 5.96936 18.3333 5.41683C18.3333 4.8643 18.1138 4.33439 17.7231 3.94369C17.3324 3.55299 16.8025 3.3335 16.25 3.3335H15" stroke="white" stroke-width="1.66667" stroke-linecap="round" stroke-linejoin="round"/>
<path d="M3.33325 18.3335H16.6666" stroke="white" stroke-width="1.66667" stroke-linecap="round" stroke-linejoin="round"/>
<path d="M8.33325 12.2168V14.1668C8.33325 14.6251 7.94159 14.9835 7.52492 15.1751C6.54159 15.6251 5.83325 16.8668 5.83325 18.3335" stroke="white" stroke-width="1.66667" stroke-linecap="round" stroke-linejoin="round"/>
<path d="M11.6667 12.2168V14.1668C11.6667 14.6251 12.0584 14.9835 12.4751 15.1751C13.4584 15.6251 14.1667 16.8668 14.1667 18.3335" stroke="white" stroke-width="1.66667" stroke-linecap="round" stroke-linejoin="round"/>
<path d="M15 1.6665H5V7.49984C5 8.82592 5.52678 10.0977 6.46447 11.0354C7.40215 11.9731 8.67392 12.4998 10 12.4998C11.3261 12.4998 12.5979 11.9731 13.5355 11.0354C14.4732 10.0977 15 8.82592 15 7.49984V1.6665Z" stroke="white" stroke-width="1.66667" stroke-linecap="round" stroke-linejoin="round"/>
</svg>
